<svg width="577" height="123" viewBox="0 0 577 123" fill="none" xmlns="http://www.w3.org/2000/svg">
<path d="M168.464 86.696C167.632 87.4 166.544 87.976 165.2 88.424C163.92 88.808 162.416 89 160.688 89C158.384 89 156.464 88.712 154.928 88.136C153.456 87.56 152.496 86.568 152.048 85.16C150.256 79.528 148.784 74.984 147.632 71.528C146.48 68.008 145.584 64.936 144.944 62.312H144.464C144.272 66.088 144.112 69.544 143.984 72.68C143.92 75.752 143.856 78.76 143.792 81.704C143.792 84.648 143.728 87.624 143.6 90.632C143.536 93.64 143.408 96.968 143.216 100.616C142.384 100.936 141.296 101.192 139.952 101.384C138.608 101.64 137.264 101.768 135.92 101.768C133.104 101.768 130.896 101.32 129.296 100.424C127.76 99.528 126.992 97.896 126.992 95.528L129.776 46.568C130.288 45.736 131.408 44.84 133.136 43.88C134.864 42.92 137.296 42.44 140.432 42.44C143.824 42.44 146.48 42.984 148.4 44.072C150.32 45.096 151.728 46.792 152.624 49.16C153.2 50.696 153.808 52.456 154.448 54.44C155.152 56.424 155.824 58.472 156.464 60.584C157.168 62.696 157.84 64.808 158.48 66.92C159.12 68.968 159.696 70.824 160.208 72.488H160.688C162.224 67.112 163.76 61.928 165.296 56.936C166.832 51.88 168.24 47.656 169.52 44.264C170.48 43.752 171.696 43.336 173.168 43.016C174.704 42.632 176.4 42.44 178.256 42.44C181.392 42.44 183.952 42.92 185.936 43.88C187.92 44.776 189.072 46.088 189.392 47.816C189.648 49.096 189.904 51.08 190.16 53.768C190.48 56.392 190.8 59.368 191.12 62.696C191.44 66.024 191.76 69.544 192.08 73.256C192.4 76.968 192.688 80.552 192.944 84.008C193.264 87.4 193.52 90.536 193.712 93.416C193.904 96.232 194.032 98.408 194.096 99.944C193.008 100.584 191.856 101.032 190.64 101.288C189.488 101.608 187.984 101.768 186.128 101.768C183.696 101.768 181.648 101.352 179.984 100.52C178.32 99.688 177.424 98.056 177.296 95.624C176.912 88.648 176.656 82.376 176.528 76.808C176.464 71.24 176.336 66.568 176.144 62.792H175.664C175.024 65.288 174.096 68.424 172.88 72.2C171.664 75.976 170.192 80.808 168.464 86.696ZM226.532 69.8C229.22 69.8 231.268 69.192 232.676 67.976C234.148 66.696 234.884 64.776 234.884 62.216C234.884 59.784 234.116 57.928 232.58 56.648C231.108 55.304 228.932 54.632 226.052 54.632C225.028 54.632 224.164 54.664 223.46 54.728C222.82 54.728 222.148 54.792 221.444 54.92V69.8H226.532ZM221.54 100.616C220.836 100.808 219.716 101 218.18 101.192C216.708 101.384 215.236 101.48 213.764 101.48C212.292 101.48 210.98 101.352 209.828 101.096C208.74 100.904 207.812 100.52 207.044 99.944C206.276 99.368 205.7 98.568 205.316 97.544C204.932 96.52 204.74 95.176 204.74 93.512V48.296C204.74 46.952 205.092 45.928 205.796 45.224C206.564 44.456 207.588 43.848 208.868 43.4C211.044 42.632 213.508 42.088 216.26 41.768C219.076 41.384 221.892 41.192 224.708 41.192C233.54 41.192 240.292 43.08 244.964 46.856C249.636 50.632 251.972 55.752 251.972 62.216C251.972 65.352 251.46 68.2 250.436 70.76C249.476 73.256 248.004 75.432 246.02 77.288C244.1 79.08 241.636 80.488 238.628 81.512C235.684 82.472 232.26 82.952 228.356 82.952H221.54V100.616ZM301.417 42.824C301.865 43.528 302.249 44.488 302.569 45.704C302.953 46.856 303.145 48.072 303.145 49.352C303.145 51.848 302.601 53.64 301.513 54.728C300.489 55.752 299.081 56.264 297.289 56.264H277.129V67.112H298.153C298.665 67.816 299.081 68.744 299.401 69.896C299.785 71.048 299.977 72.264 299.977 73.544C299.977 75.976 299.433 77.736 298.345 78.824C297.321 79.848 295.913 80.36 294.121 80.36H277.321V100.616C276.617 100.808 275.497 101 273.961 101.192C272.489 101.384 271.017 101.48 269.545 101.48C268.073 101.48 266.761 101.352 265.609 101.096C264.521 100.904 263.593 100.52 262.825 99.944C262.057 99.368 261.481 98.568 261.097 97.544C260.713 96.52 260.521 95.176 260.521 93.512V51.752C260.521 49 261.321 46.824 262.921 45.224C264.521 43.624 266.697 42.824 269.449 42.824H301.417ZM328.321 100.616C327.617 100.808 326.497 101 324.961 101.192C323.489 101.384 322.017 101.48 320.545 101.48C319.073 101.48 317.761 101.352 316.609 101.096C315.521 100.904 314.593 100.52 313.825 99.944C313.057 99.368 312.481 98.568 312.097 97.544C311.713 96.52 311.521 95.176 311.521 93.512V42.824C312.225 42.696 313.345 42.536 314.881 42.344C316.417 42.088 317.889 41.96 319.297 41.96C320.769 41.96 322.049 42.088 323.137 42.344C324.289 42.536 325.249 42.92 326.017 43.496C326.785 44.072 327.361 44.872 327.745 45.896C328.129 46.92 328.321 48.264 328.321 49.928V100.616ZM340.771 51.752C340.771 49 341.571 46.824 343.171 45.224C344.771 43.624 346.947 42.824 349.699 42.824H381.379C381.827 43.528 382.211 44.456 382.531 45.608C382.915 46.76 383.107 47.976 383.107 49.256C383.107 51.688 382.563 53.416 381.475 54.44C380.451 55.464 379.075 55.976 377.347 55.976H357.091V64.904H378.691C379.139 65.608 379.523 66.536 379.843 67.688C380.227 68.776 380.419 69.96 380.419 71.24C380.419 73.672 379.907 75.4 378.883 76.424C377.859 77.448 376.483 77.96 374.755 77.96H357.091V88.04H381.763C382.211 88.744 382.595 89.672 382.915 90.824C383.299 91.976 383.491 93.192 383.491 94.472C383.491 96.904 382.947 98.664 381.859 99.752C380.835 100.776 379.459 101.288 377.731 101.288H349.699C346.947 101.288 344.771 100.488 343.171 98.888C341.571 97.288 340.771 95.112 340.771 92.36V51.752ZM402.293 101.288C399.541 101.288 397.365 100.488 395.765 98.888C394.165 97.288 393.365 95.112 393.365 92.36V42.728C394.069 42.6 395.189 42.44 396.725 42.248C398.261 41.992 399.733 41.864 401.141 41.864C402.613 41.864 403.893 41.992 404.981 42.248C406.133 42.44 407.093 42.824 407.861 43.4C408.629 43.976 409.205 44.776 409.589 45.8C409.973 46.824 410.165 48.168 410.165 49.832V87.752H432.149C432.597 88.456 433.013 89.416 433.397 90.632C433.781 91.784 433.973 93 433.973 94.28C433.973 96.84 433.429 98.664 432.341 99.752C431.253 100.776 429.813 101.288 428.021 101.288H402.293ZM459.288 88.52C459.992 88.648 460.856 88.776 461.88 88.904C462.904 88.968 463.864 89 464.76 89C466.936 89 468.92 88.68 470.712 88.04C472.568 87.4 474.136 86.408 475.416 85.064C476.76 83.72 477.784 81.992 478.488 79.88C479.256 77.704 479.64 75.112 479.64 72.104C479.64 66.344 478.296 62.024 475.608 59.144C472.92 56.2 469.336 54.728 464.856 54.728C463.96 54.728 463.032 54.76 462.072 54.824C461.176 54.888 460.248 54.984 459.288 55.112V88.52ZM464.664 102.536C463.576 102.536 462.328 102.504 460.92 102.44C459.512 102.376 458.04 102.248 456.504 102.056C455.032 101.864 453.528 101.608 451.992 101.288C450.52 101.032 449.144 100.648 447.864 100.136C444.344 98.792 442.584 96.456 442.584 93.128V48.296C442.584 46.952 442.936 45.928 443.64 45.224C444.408 44.456 445.432 43.848 446.712 43.4C449.464 42.504 452.376 41.928 455.448 41.672C458.52 41.352 461.272 41.192 463.704 41.192C468.696 41.192 473.208 41.8 477.24 43.016C481.336 44.232 484.824 46.12 487.704 48.68C490.648 51.176 492.92 54.344 494.52 58.184C496.12 62.024 496.92 66.568 496.92 71.816C496.92 76.936 496.152 81.416 494.616 85.256C493.08 89.032 490.872 92.232 487.992 94.856C485.176 97.416 481.784 99.336 477.816 100.616C473.848 101.896 469.464 102.536 464.664 102.536Z" fill="#534439"/>
<path d="M35.904 54.536C30.976 54.536 27.2 56.04 24.576 59.048C21.952 62.056 20.64 66.312 20.64 71.816C20.64 77.384 22.08 81.672 24.96 84.68C27.904 87.688 31.84 89.192 36.768 89.192C39.392 89.192 41.6 88.84 43.392 88.136C45.248 87.432 47.008 86.632 48.672 85.736C49.76 86.632 50.592 87.72 51.168 89C51.808 90.216 52.128 91.656 52.128 93.32C52.128 95.944 50.656 98.184 47.712 100.04C44.832 101.832 40.416 102.728 34.464 102.728C30.176 102.728 26.144 102.12 22.368 100.904C18.592 99.688 15.296 97.832 12.48 95.336C9.664 92.776 7.424 89.576 5.76 85.736C4.16 81.832 3.36 77.192 3.36 71.816C3.36 66.824 4.128 62.44 5.664 58.664C7.264 54.824 9.408 51.592 12.096 48.968C14.848 46.344 18.048 44.36 21.696 43.016C25.344 41.672 29.248 41 33.408 41C39.296 41 43.84 41.96 47.04 43.88C50.304 45.8 51.936 48.264 51.936 51.272C51.936 52.936 51.52 54.376 50.688 55.592C49.856 56.808 48.896 57.768 47.808 58.472C46.144 57.384 44.352 56.456 42.432 55.688C40.576 54.92 38.4 54.536 35.904 54.536Z" fill="#534439"/>
<path d="M85.9019 40.5C87.0566 38.5 89.9434 38.5 91.0981 40.5L123.574 96.75C124.729 98.75 123.285 101.25 120.976 101.25H56.024C53.7146 101.25 52.2713 98.75 53.426 96.75L85.9019 40.5Z" fill="#E07600"/>
<rect x="79" y="52.5167" width="26" height="6" rx="3" transform="rotate(-60 79 52.5167)" fill="#E07600"/>
<rect x="85" y="30" width="26" height="6" rx="3" transform="rotate(60 85 30)" fill="#E07600"/>
<path d="M88 69L95.7942 101.25H80.2058L88 69Z" fill="#534439"/>
<path fill-rule="evenodd" clip-rule="evenodd" d="M95.7415 101.232L105.554 98.8757C107.588 98.3875 108.51 96.0211 107.344 94.2855L91.1913 70.2446C90.4166 69.0916 89.1343 68.7295 88.0034 69L95.7415 101.232Z" fill="#FFC633"/>
<path fill-rule="evenodd" clip-rule="evenodd" d="M80.2619 101.232L70.4489 98.8757C68.4156 98.3875 67.493 96.0211 68.6592 94.2855L84.8121 70.2446C85.5868 69.0916 86.8691 68.7295 88 69L80.2619 101.232Z" fill="#FFC633"/>
<path fill-rule="evenodd" clip-rule="evenodd" d="M525.572 28.7512C526.373 27.7496 527.896 27.7496 528.697 28.7512L543.326 47.0511C544.373 48.3608 543.44 50.3 541.764 50.3H535.709L547.94 63.1949C549.148 64.4692 548.245 66.5712 546.489 66.5712H537.526L552.626 80.5817C553.958 81.8183 553.083 84.0478 551.265 84.0478H503.004C501.186 84.0478 500.311 81.8183 501.644 80.5817L516.743 66.5712H507.781C506.024 66.5712 505.121 64.4692 506.33 63.1949L518.561 50.3H512.506C510.829 50.3 509.896 48.3608 510.943 47.0511L525.572 28.7512Z" fill="#146E5F"/>
<rect x="523" y="53" width="8" height="48" rx="4" fill="#534439"/>
<path fill-rule="evenodd" clip-rule="evenodd" d="M557.265 86.0478H574.265C576.083 86.0478 576.958 83.8183 575.626 82.5817L560.526 68.5712H569.489C571.245 68.5712 572.148 66.4692 570.94 65.1949L558.709 52.3H564.764C566.44 52.3 567.373 50.3608 566.326 49.0511L551.697 30.7512C550.896 29.7496 549.373 29.7496 548.572 30.7512L541.635 39.4299L549.326 49.0511C550.373 50.3608 549.44 52.3 547.764 52.3H541.709L553.94 65.1949C555.148 66.4692 554.245 68.5712 552.489 68.5712H543.526L558.626 82.5817C559.958 83.8183 559.083 86.0478 557.265 86.0478Z" fill="#146E5F"/>
<path fill-rule="evenodd" clip-rule="evenodd" d="M546 86.0478V97C546 99.2091 547.791 101 550 101C552.209 101 554 99.2091 554 97V86.0478H546Z" fill="#534439"/>
</svg>
